# xmcd
#
# Track frame offsets: 
#        150
#        12450
#        24350
#        35113
#        45325
#        56992
#        70054
#        79909
#        92824
#        106487
#        117597
#        127580
#        138795
#        149073
#        159373
#        172718
#        183777
#        195412
#        207422
#        218677
#        228417
#        240842
#        253189
#        266090
#        278260
#        289502
#        300804
#        311487
#        321499
#        333294
#
# Disc length: 4554 seconds
#
# Revision: 0
# Processed by: cddbd v1.5.2PL0 Copyright (c) Steve Scherf et al.
# Submitted via: ExactAudioCopy v1.0b1
#
DISCID=9b11c81e
DTITLE=Stonewall Jackson - The Life Of A Poor Boy
DYEAR=2011
DGENRE=Country
TTITLE0=I Washed My Hands In Muddy Water
TTITLE1=Help Stamp Out Loneliness
TTITLE2=Life Of A Poor Boy
TTITLE3=Trouble And Me
TTITLE4=The Water's So Cold
TTITLE5=Wild Wild Wind
TTITLE6=I've Got To Change
TTITLE7=Thirty Links Of Chain
TTITLE8=While The Daisies Grow Free
TTITLE9=Mary Don't You Weep
TTITLE10=Picket Sign
TTITLE11=Give It Back To The Indians
TTITLE12=Promises And Hearts (Were Made To Break)
TTITLE13=The Neon Lights (Don't Care Who They Burn)
TTITLE14=I'll Go Get The Tool Box
TTITLE15=Poor Red Georgia Dirt
TTITLE16=This World Holds Nothing (Since You're Gone)
TTITLE17=If This House Could Talk
TTITLE18=There's No Reason To Be Living
TTITLE19=The Wine Flowed Freely
TTITLE20=Blues Plus Booze (Means I Lose)
TTITLE21=Drinking And Driving
TTITLE22=My Song
TTITLE23=Smoke Along The Track
TTITLE24=Life To Go
TTITLE25=Gettin' Older
TTITLE26=I Can't Go On Living This Way
TTITLE27=Knock Off Your Naggin'
TTITLE28=Don't Be Angry
TTITLE29=Why I'm Walkin'
EXTD=
EXTT0=
EXTT1=
EXTT2=
EXTT3=
EXTT4=
EXTT5=
EXTT6=
EXTT7=
EXTT8=
EXTT9=
EXTT10=
EXTT11=
EXTT12=
EXTT13=
EXTT14=
EXTT15=
EXTT16=
EXTT17=
EXTT18=
EXTT19=
EXTT20=
EXTT21=
EXTT22=
EXTT23=
EXTT24=
EXTT25=
EXTT26=
EXTT27=
EXTT28=
EXTT29=
PLAYORDER=
